<svg xmlns="http://www.w3.org/2000/svg" viewBox="-4475.11 -3983.927 133.142 39.883"><defs><style>.cls-1 { fill: #fff; }</style></defs><g id="Download_on_the_App_Store_Badge_US-UK_135x40"><path id="Path_2774" data-name="Path 2774" d="M-4341.968-3948.042a3.916 3.916 0 0 1-3.834 4h-125.47a3.92 3.92 0 0 1-3.838-4v-31.882a3.926 3.926 0 0 1 3.84-4h125.47a3.92 3.92 0 0 1 3.834 4v31.882z"/><g id="Group_3510" data-name="Group 3510"><g id="Group_3509" data-name="Group 3509"><path id="Path_2775" data-name="Path 2775" class="cls-1" d="M-4445.872-3964.216a5.8 5.8 0 0 1 2.76-4.864 5.937 5.937 0 0 0-4.675-2.528c-1.967-.207-3.875 1.177-4.877 1.177-1.022 0-2.565-1.158-4.228-1.124a6.225 6.225 0 0 0-5.24 3.2c-2.266 3.923-.576 9.688 1.6 12.86 1.086 1.552 2.355 3.286 4.016 3.225 1.625-.066 2.232-1.035 4.193-1.035 1.943 0 2.513 1.036 4.207 1 1.744-.028 2.842-1.56 3.89-3.127a12.832 12.832 0 0 0 1.78-3.623 5.6 5.6 0 0 1-3.426-5.16z"/><path id="Path_2776" data-name="Path 2776" class="cls-1" d="M-4449.072-3973.694a5.706 5.706 0 0 0 1.306-4.09 5.812 5.812 0 0 0-3.758 1.945 5.43 5.43 0 0 0-1.34 3.94 4.8 4.8 0 0 0 3.792-1.794z"/></g></g><g id="Group_3511" data-name="Group 3511"><path id="Path_2777" data-name="Path 2777" class="cls-1" d="M-4422.355-3952.5h-2.27l-1.245-3.905h-4.324l-1.185 3.905h-2.21l4.284-13.3h2.646zm-3.89-5.55l-1.125-3.47q-.178-.532-.67-2.507h-.04q-.2.85-.633 2.507l-1.1 3.475z"/><path id="Path_2778" data-name="Path 2778" class="cls-1" d="M-4411.338-3957.412a5.453 5.453 0 0 1-1.323 3.87 3.868 3.868 0 0 1-2.94 1.263 2.942 2.942 0 0 1-2.725-1.36h-.04v5.054h-2.135v-10.347q0-1.54-.08-3.16h1.88l.12 1.522h.04a3.793 3.793 0 0 1 6.07-.377 5.287 5.287 0 0 1 1.132 3.535zm-2.172.078a3.95 3.95 0 0 0-.632-2.31 2.183 2.183 0 0 0-1.858-.948 2.217 2.217 0 0 0-1.43.523 2.426 2.426 0 0 0-.84 1.374 2.79 2.79 0 0 0-.1.65v1.6a2.564 2.564 0 0 0 .642 1.768 2.128 2.128 0 0 0 1.668.72 2.183 2.183 0 0 0 1.875-.927 4.084 4.084 0 0 0 .675-2.45z"/><path id="Path_2779" data-name="Path 2779" class="cls-1" d="M-4400.3-3957.412a5.45 5.45 0 0 1-1.324 3.87 3.865 3.865 0 0 1-2.94 1.263 2.94 2.94 0 0 1-2.725-1.36h-.04v5.054h-2.132v-10.347q0-1.54-.08-3.16h1.876l.12 1.522h.04a3.794 3.794 0 0 1 6.07-.377 5.3 5.3 0 0 1 1.136 3.535zm-2.172.078a3.95 3.95 0 0 0-.633-2.31 2.18 2.18 0 0 0-1.855-.948 2.22 2.22 0 0 0-1.432.523 2.424 2.424 0 0 0-.838 1.374 2.846 2.846 0 0 0-.1.65v1.6a2.572 2.572 0 0 0 .64 1.768 2.132 2.132 0 0 0 1.67.72 2.183 2.183 0 0 0 1.875-.927 4.084 4.084 0 0 0 .672-2.45z"/><path id="Path_2780" data-name="Path 2780" class="cls-1" d="M-4387.96-3956.228a3.547 3.547 0 0 1-1.183 2.764 5.24 5.24 0 0 1-3.625 1.164 6.345 6.345 0 0 1-3.45-.83l.495-1.776a5.844 5.844 0 0 0 3.082.85 2.914 2.914 0 0 0 1.876-.544 1.776 1.776 0 0 0 .67-1.454 1.854 1.854 0 0 0-.553-1.364 5.14 5.14 0 0 0-1.836-1.03q-3.5-1.3-3.494-3.815a3.377 3.377 0 0 1 1.225-2.69 4.83 4.83 0 0 1 3.258-1.047 6.46 6.46 0 0 1 3.02.632l-.533 1.738a5.24 5.24 0 0 0-2.547-.612 2.578 2.578 0 0 0-1.756.553 1.58 1.58 0 0 0-.533 1.2 1.627 1.627 0 0 0 .61 1.3 6.906 6.906 0 0 0 1.933 1.037 6.568 6.568 0 0 1 2.527 1.618 3.38 3.38 0 0 1 .812 2.307z"/><path id="Path_2781" data-name="Path 2781" class="cls-1" d="M-4380.912-3960.492h-2.35v4.66q0 1.776 1.244 1.776a3.792 3.792 0 0 0 .947-.1l.058 1.62a4.83 4.83 0 0 1-1.658.235 2.558 2.558 0 0 1-1.975-.77 3.783 3.783 0 0 1-.71-2.588v-4.836h-1.4v-1.6h1.4v-1.757l2.093-.633v2.39h2.35v1.6z"/><path id="Path_2782" data-name="Path 2782" class="cls-1" d="M-4370.31-3957.373a5.264 5.264 0 0 1-1.263 3.633 4.513 4.513 0 0 1-3.516 1.46 4.29 4.29 0 0 1-3.364-1.4 5.1 5.1 0 0 1-1.254-3.533 5.212 5.212 0 0 1 1.293-3.652 4.475 4.475 0 0 1 3.484-1.422 4.382 4.382 0 0 1 3.4 1.4 5.044 5.044 0 0 1 1.22 3.514zm-2.21.07a4.316 4.316 0 0 0-.573-2.278 2.106 2.106 0 0 0-1.914-1.15 2.138 2.138 0 0 0-1.955 1.15 4.4 4.4 0 0 0-.572 2.316 4.31 4.31 0 0 0 .572 2.276 2.18 2.18 0 0 0 3.85-.02 4.332 4.332 0 0 0 .59-2.292z"/><path id="Path_2783" data-name="Path 2783" class="cls-1" d="M-4363.38-3960.217a3.7 3.7 0 0 0-.67-.06 2.014 2.014 0 0 0-1.74.85 3.2 3.2 0 0 0-.532 1.9v5.027h-2.13l.02-6.574q0-1.66-.08-3.02h1.856l.078 1.835h.06a3.282 3.282 0 0 1 1.065-1.52 2.578 2.578 0 0 1 1.54-.513 3.423 3.423 0 0 1 .534.04v2.032z"/><path id="Path_2784" data-name="Path 2784" class="cls-1" d="M-4353.844-3957.748a5 5 0 0 1-.078.967h-6.4a2.784 2.784 0 0 0 .928 2.172 3.168 3.168 0 0 0 2.092.67 7.074 7.074 0 0 0 2.588-.453l.334 1.48a8 8 0 0 1-3.217.592 4.66 4.66 0 0 1-3.506-1.313 4.85 4.85 0 0 1-1.273-3.525 5.5 5.5 0 0 1 1.186-3.613 4.086 4.086 0 0 1 3.355-1.54 3.576 3.576 0 0 1 3.14 1.54 5.19 5.19 0 0 1 .85 3.02zm-2.033-.553a2.9 2.9 0 0 0-.414-1.64 1.862 1.862 0 0 0-1.7-.89 2.023 2.023 0 0 0-1.7.87 3.18 3.18 0 0 0-.632 1.658h4.44z"/></g><g id="Group_3513" data-name="Group 3513"><g id="Group_3512" data-name="Group 3512"><path id="Path_2785" data-name="Path 2785" class="cls-1" d="M-4426.95-3973.99a3.283 3.283 0 0 1-1.058 2.657 4.208 4.208 0 0 1-2.783.824 12.9 12.9 0 0 1-1.534-.077v-6.43a11.313 11.313 0 0 1 1.805-.137 3.89 3.89 0 0 1 2.59.747 3.02 3.02 0 0 1 .98 2.416zm-1.1.028a2.39 2.39 0 0 0-.606-1.756 2.39 2.39 0 0 0-1.77-.61 4.435 4.435 0 0 0-.845.067v4.888a5.533 5.533 0 0 0 .707.03 2.48 2.48 0 0 0 1.857-.67 2.68 2.68 0 0 0 .65-1.95z"/><path id="Path_2786" data-name="Path 2786" class="cls-1" d="M-4421.09-3972.963a2.586 2.586 0 0 1-.622 1.785 2.216 2.216 0 0 1-1.727.718 2.107 2.107 0 0 1-1.653-.69 2.51 2.51 0 0 1-.615-1.735 2.56 2.56 0 0 1 .635-1.794 2.2 2.2 0 0 1 1.712-.7 2.156 2.156 0 0 1 1.668.69 2.49 2.49 0 0 1 .6 1.727zm-1.088.034a2.132 2.132 0 0 0-.28-1.118 1.035 1.035 0 0 0-.94-.564 1.05 1.05 0 0 0-.962.564 2.16 2.16 0 0 0-.28 1.138 2.132 2.132 0 0 0 .28 1.12 1.058 1.058 0 0 0 .95.563 1.046 1.046 0 0 0 .94-.574 2.12 2.12 0 0 0 .292-1.13z"/><path id="Path_2787" data-name="Path 2787" class="cls-1" d="M-4413.235-3975.28l-1.475 4.713h-.96l-.61-2.047a15.322 15.322 0 0 1-.38-1.523h-.02a11.15 11.15 0 0 1-.378 1.523l-.65 2.047h-.97l-1.387-4.714h1.077l.533 2.24q.194.795.32 1.513h.02q.116-.59.388-1.5l.67-2.25h.857l.64 2.2q.233.805.38 1.552h.028a14.83 14.83 0 0 1 .32-1.552l.572-2.2h1.03z"/><path id="Path_2788" data-name="Path 2788" class="cls-1" d="M-4407.8-3970.567h-1.05v-2.7q0-1.248-.95-1.248a.946.946 0 0 0-.757.343 1.217 1.217 0 0 0-.29.808v2.8h-1.053v-3.37q0-.62-.038-1.35h.92l.05.738h.03a1.514 1.514 0 0 1 .542-.57 1.77 1.77 0 0 1 .95-.264 1.5 1.5 0 0 1 1.1.427 2.075 2.075 0 0 1 .543 1.562z"/><path id="Path_2789" data-name="Path 2789" class="cls-1" d="M-4404.912-3970.567h-1.047v-6.877h1.048z"/><path id="Path_2790" data-name="Path 2790" class="cls-1" d="M-4398.742-3972.963a2.586 2.586 0 0 1-.62 1.785 2.218 2.218 0 0 1-1.728.718 2.1 2.1 0 0 1-1.654-.69 2.51 2.51 0 0 1-.615-1.735 2.56 2.56 0 0 1 .636-1.794 2.2 2.2 0 0 1 1.71-.7 2.158 2.158 0 0 1 1.67.69 2.49 2.49 0 0 1 .602 1.727zm-1.088.034a2.132 2.132 0 0 0-.28-1.118 1.033 1.033 0 0 0-.94-.564 1.05 1.05 0 0 0-.96.564 2.16 2.16 0 0 0-.282 1.138 2.132 2.132 0 0 0 .28 1.12 1.058 1.058 0 0 0 .952.563 1.044 1.044 0 0 0 .94-.574 2.11 2.11 0 0 0 .29-1.13z"/><path id="Path_2791" data-name="Path 2791" class="cls-1" d="M-4393.67-3970.567h-.94l-.08-.543h-.028a1.614 1.614 0 0 1-1.377.65 1.42 1.42 0 0 1-1.076-.427 1.34 1.34 0 0 1-.37-.96 1.465 1.465 0 0 1 .723-1.32 3.752 3.752 0 0 1 2.033-.445v-.088q0-.932-.98-.93a2.192 2.192 0 0 0-1.228.348l-.208-.688a3.023 3.023 0 0 1 1.617-.407q1.848 0 1.85 1.95v1.736a7.363 7.363 0 0 0 .063 1.123zm-1.088-1.62v-.727q-1.734-.03-1.734.95a.71.71 0 0 0 .2.553.733.733 0 0 0 .512.183 1.058 1.058 0 0 0 .64-.218.895.895 0 0 0 .38-.742z"/><path id="Path_2792" data-name="Path 2792" class="cls-1" d="M-4387.715-3970.567h-.93l-.05-.757h-.028a1.567 1.567 0 0 1-1.514.864 1.774 1.774 0 0 1-1.416-.67 2.606 2.606 0 0 1-.562-1.735 2.733 2.733 0 0 1 .615-1.853 1.88 1.88 0 0 1 1.455-.66 1.413 1.413 0 0 1 1.328.64h.02v-2.706h1.05v5.607q-.005.688.032 1.27zm-1.085-1.988v-.786a1.543 1.543 0 0 0-.03-.33 1.194 1.194 0 0 0-.378-.636 1.03 1.03 0 0 0-.7-.257 1.075 1.075 0 0 0-.922.466 2 2 0 0 0-.336 1.193 1.862 1.862 0 0 0 .322 1.135 1.08 1.08 0 0 0 .916.466 1.01 1.01 0 0 0 .828-.388 1.292 1.292 0 0 0 .3-.863z"/><path id="Path_2793" data-name="Path 2793" class="cls-1" d="M-4378.752-3972.963a2.586 2.586 0 0 1-.62 1.785 2.215 2.215 0 0 1-1.728.718 2.11 2.11 0 0 1-1.654-.69 2.51 2.51 0 0 1-.615-1.735 2.56 2.56 0 0 1 .636-1.794 2.2 2.2 0 0 1 1.713-.7 2.154 2.154 0 0 1 1.667.69 2.49 2.49 0 0 1 .6 1.727zm-1.086.034a2.132 2.132 0 0 0-.28-1.118 1.036 1.036 0 0 0-.942-.564 1.053 1.053 0 0 0-.96.564 2.16 2.16 0 0 0-.28 1.138 2.132 2.132 0 0 0 .28 1.12 1.07 1.07 0 0 0 1.893-.01 2.128 2.128 0 0 0 .29-1.13z"/><path id="Path_2794" data-name="Path 2794" class="cls-1" d="M-4373.117-3970.567h-1.047v-2.7q0-1.248-.95-1.248a.942.942 0 0 0-.757.343 1.212 1.212 0 0 0-.292.808v2.8h-1.05v-3.37q0-.62-.036-1.35h.92l.05.738h.028a1.53 1.53 0 0 1 .543-.57 1.775 1.775 0 0 1 .95-.264 1.5 1.5 0 0 1 1.1.427 2.07 2.07 0 0 1 .544 1.562z"/><path id="Path_2795" data-name="Path 2795" class="cls-1" d="M-4366.064-3974.5h-1.154v2.29c0 .582.205.873.61.873a1.846 1.846 0 0 0 .468-.05l.027.8a2.355 2.355 0 0 1-.814.118 1.253 1.253 0 0 1-.97-.377 1.85 1.85 0 0 1-.35-1.27v-2.383h-.688v-.78h.69v-.865l1.026-.31v1.173h1.155v.782z"/><path id="Path_2796" data-name="Path 2796" class="cls-1" d="M-4360.516-3970.567h-1.05v-2.68q0-1.268-.948-1.268a1 1 0 0 0-1 .735 1.317 1.317 0 0 0-.05.377v2.835h-1.046v-6.876h1.047v2.844h.02a1.584 1.584 0 0 1 1.416-.775 1.46 1.46 0 0 1 1.078.427 2.147 2.147 0 0 1 .534 1.58v2.8z"/><path id="Path_2797" data-name="Path 2797" class="cls-1" d="M-4354.793-3973.147a2.53 2.53 0 0 1-.04.475h-3.142a1.374 1.374 0 0 0 .455 1.067 1.56 1.56 0 0 0 1.03.33 3.472 3.472 0 0 0 1.27-.223l.164.728a3.947 3.947 0 0 1-1.582.29 2.285 2.285 0 0 1-1.72-.644 2.376 2.376 0 0 1-.626-1.73 2.7 2.7 0 0 1 .584-1.776 2 2 0 0 1 1.648-.756 1.753 1.753 0 0 1 1.54.756 2.517 2.517 0 0 1 .42 1.483zm-1-.27a1.41 1.41 0 0 0-.2-.806.915.915 0 0 0-.834-.437 1 1 0 0 0-.834.427 1.586 1.586 0 0 0-.312.815h2.182z"/></g></g></g></svg>