<svg xmlns="http://www.w3.org/2000/svg" viewBox="-4621 -3984 135 40"><defs><style>.cls-1, .cls-2, .cls-9 { fill: #fff; } .cls-1 { stroke: #fff; stroke-miterlimit: 10; stroke-width: 0.2px; } .cls-3 { fill: url(#linear-gradient); } .cls-4 { fill: url(#linear-gradient-2); } .cls-5 { fill: url(#linear-gradient-3); } .cls-6 { fill: url(#linear-gradient-4); } .cls-7 { opacity: 0.2; } .cls-8 { opacity: 0.12; } .cls-9 { opacity: 0.25; }</style><linearGradient id="linear-gradient" x1=".908" y1="6.632" x2="-.383" y2="5.96" gradientUnits="objectBoundingBox"><stop offset="0" stop-color="#00a0ff"/><stop offset=".007" stop-color="#00a1ff"/><stop offset=".26" stop-color="#00beff"/><stop offset=".512" stop-color="#00d2ff"/><stop offset=".76" stop-color="#00dfff"/><stop offset="1" stop-color="#00e3ff"/></linearGradient><linearGradient id="linear-gradient-2" x1="1.077" y1="17.2" x2="-1.307" y2="17.2" gradientUnits="objectBoundingBox"><stop offset="0" stop-color="#ffe000"/><stop offset=".409" stop-color="#ffbd00"/><stop offset=".775" stop-color="orange"/><stop offset="1" stop-color="#ff9c00"/></linearGradient><linearGradient id="linear-gradient-3" x1=".864" y1="10.839" x2="-.499" y2="9.074" gradientUnits="objectBoundingBox"><stop offset="0" stop-color="#ff3a44"/><stop offset="1" stop-color="#c31162"/></linearGradient><linearGradient id="linear-gradient-4" x1="-.186" y1="13.614" x2=".423" y2="12.822" gradientUnits="objectBoundingBox"><stop offset="0" stop-color="#32a071"/><stop offset=".068" stop-color="#2da771"/><stop offset=".476" stop-color="#15cf74"/><stop offset=".801" stop-color="#06e775"/><stop offset="1" stop-color="#00f076"/></linearGradient></defs><g id="Group_3520" data-name="Group 3520"><g id="Group_3514" data-name="Group 3514"><path id="Path_2798" data-name="Path 2798" d="M-4491-3944h-125a4.95 4.95 0 0 1-5-5v-30a4.95 4.95 0 0 1 5-5h125a4.95 4.95 0 0 1 5 5v30a4.95 4.95 0 0 1-5 5z"/></g><g id="Group_3517" data-name="Group 3517"><path id="Path_2800" data-name="Path 2800" class="cls-1" d="M-4573.6-3973.8a2.724 2.724 0 0 1-.7 2 3.1 3.1 0 0 1-5.3-2.2 3.073 3.073 0 0 1 3.1-3.1 2.663 2.663 0 0 1 1.2.3 2.178 2.178 0 0 1 .9.7l-.5.5a1.865 1.865 0 0 0-1.6-.7 1.99 1.99 0 0 0-1.6.7 2.06 2.06 0 0 0-.7 1.7 2.06 2.06 0 0 0 .7 1.7 2.575 2.575 0 0 0 1.6.7 2.193 2.193 0 0 0 1.7-.7 1.656 1.656 0 0 0 .5-1.2h-2.2v-.8h2.9v.4z"/><path id="Path_2801" data-name="Path 2801" class="cls-1" d="M-4569-3976.3h-2.7v1.9h2.5v.7h-2.5v1.9h2.7v.8h-3.5v-6h3.5z"/><path id="Path_2802" data-name="Path 2802" class="cls-1" d="M-4565.7-3971h-.8v-5.3h-1.7v-.7h4.2v.7h-1.7z"/><path id="Path_2803" data-name="Path 2803" class="cls-1" d="M-4561.1-3971v-6h.8v6z"/><path id="Path_2804" data-name="Path 2804" class="cls-1" d="M-4556.9-3971h-.8v-5.3h-1.7v-.7h4.1v.7h-1.7v5.3z"/><path id="Path_2805" data-name="Path 2805" class="cls-1" d="M-4547.4-3971.8a3.1 3.1 0 0 1-5.3-2.2 3.1 3.1 0 1 1 6.2 0 2.94 2.94 0 0 1-.9 2.2zm-3.8-.5a2.36 2.36 0 0 0 1.6.7 1.99 1.99 0 0 0 1.6-.7 2.413 2.413 0 0 0 .7-1.7 2.06 2.06 0 0 0-.7-1.7 2.36 2.36 0 0 0-1.6-.7 1.99 1.99 0 0 0-1.6.7 2.413 2.413 0 0 0-.7 1.7 2.06 2.06 0 0 0 .7 1.7z"/><path id="Path_2806" data-name="Path 2806" class="cls-1" d="M-4545.4-3971v-6h.9l2.9 4.7v-4.7h.8v6h-.8l-3.1-4.9v4.9z"/></g><path id="Path_2807" data-name="Path 2807" class="cls-2" d="M-4552.9-3962.2a4.207 4.207 0 0 0-4.3 4.3 4.268 4.268 0 0 0 4.3 4.3 4.207 4.207 0 0 0 4.3-4.3 4.15 4.15 0 0 0-4.3-4.3zm0 6.8a2.608 2.608 0 0 1 0-5.2 2.422 2.422 0 0 1 2.4 2.6 2.482 2.482 0 0 1-2.4 2.6zm-9.3-6.8a4.207 4.207 0 0 0-4.3 4.3 4.268 4.268 0 0 0 4.3 4.3 4.207 4.207 0 0 0 4.3-4.3 4.15 4.15 0 0 0-4.3-4.3zm0 6.8a2.608 2.608 0 0 1 0-5.2 2.422 2.422 0 0 1 2.4 2.6 2.482 2.482 0 0 1-2.4 2.6zm-11.1-5.5v1.8h4.3a3.78 3.78 0 0 1-1 2.3 4.426 4.426 0 0 1-3.3 1.3 4.656 4.656 0 0 1-4.7-4.8 4.717 4.717 0 0 1 4.7-4.8 4.958 4.958 0 0 1 3.3 1.3l1.3-1.3a6.408 6.408 0 0 0-4.5-1.8 6.746 6.746 0 0 0-6.7 6.6 6.746 6.746 0 0 0 6.7 6.6 5.755 5.755 0 0 0 4.6-1.9 6.02 6.02 0 0 0 1.6-4.2 3.75 3.75 0 0 0-.1-1.1zm45.4 1.4a3.885 3.885 0 0 0-3.6-2.7 4.028 4.028 0 0 0-4 4.3 4.185 4.185 0 0 0 4.2 4.3 4.1 4.1 0 0 0 3.5-1.9l-1.4-1a2.437 2.437 0 0 1-2.1 1.2 2.17 2.17 0 0 1-2.1-1.3l5.7-2.4zm-5.8 1.4a2.43 2.43 0 0 1 2.2-2.5 1.77 1.77 0 0 1 1.6.9zm-4.7 4.1h1.9v-12.5h-1.9zm-3-7.3a3.293 3.293 0 0 0-2.3-1 4.3 4.3 0 0 0-4.1 4.3 4.14 4.14 0 0 0 4.1 4.2 2.87 2.87 0 0 0 2.2-1h.1v.6a2.273 2.273 0 0 1-4.4 1l-1.6.7a4.125 4.125 0 0 0 3.8 2.5c2.2 0 4-1.3 4-4.4v-7.6h-1.8v.7zm-2.2 5.9a2.608 2.608 0 0 1 0-5.2 2.406 2.406 0 0 1 2.3 2.6 2.406 2.406 0 0 1-2.3 2.6zm24.4-11.1h-4.5v12.5h1.9v-4.7h2.6a3.9 3.9 0 1 0 0-7.8zm.1 6h-2.7v-4.3h2.7a2.2 2.2 0 0 1 2.2 2.1 2.29 2.29 0 0 1-2.2 2.2zm11.5-1.8a3.36 3.36 0 0 0-3.3 1.9l1.7.7a1.766 1.766 0 0 1 1.7-.9 1.88 1.88 0 0 1 2 1.6v.1a3.967 3.967 0 0 0-1.9-.5c-1.8 0-3.6 1-3.6 2.8a2.93 2.93 0 0 0 3.1 2.8 2.814 2.814 0 0 0 2.4-1.2h.1v1h1.8v-4.8a3.785 3.785 0 0 0-4-3.5zm-.2 6.9c-.6 0-1.5-.3-1.5-1.1 0-1 1.1-1.3 2-1.3a3.867 3.867 0 0 1 1.7.4 2.33 2.33 0 0 1-2.2 2zm10.5-6.6l-2.1 5.4h-.1l-2.2-5.4h-2l3.3 7.6-1.9 4.2h1.9l5.1-11.8zm-16.8 8h1.9v-12.5h-1.9z"/><g id="Group_3519" data-name="Group 3519"><path id="Path_2808" data-name="Path 2808" class="cls-3" d="M-4610.6-3976.5a1.955 1.955 0 0 0-.4 1.4v22.1a1.978 1.978 0 0 0 .5 1.4l.1.1 12.4-12.4v-.2l-12.6-12.4z"/><path id="Path_2809" data-name="Path 2809" class="cls-4" d="M-4594-3959.7l-4.1-4.1v-.3l4.1-4.1.1.1 4.9 2.8c1.4.8 1.4 2.1 0 2.9l-5 2.7z"/><path id="Path_2810" data-name="Path 2810" class="cls-5" d="M-4593.9-3959.8l-4.2-4.2-12.5 12.5c.5.5 1.2.5 2.1.1l14.6-8.4"/><path id="Path_2811" data-name="Path 2811" class="cls-6" d="M-4593.9-3968.2l-14.6-8.3a1.62 1.62 0 0 0-2.1.1l12.5 12.4z"/><g id="Group_3518" data-name="Group 3518"><path id="Path_2812" data-name="Path 2812" class="cls-7" d="M-4594-3959.9l-14.5 8.2a1.635 1.635 0 0 1-2 0l-.1.1.1.1a1.635 1.635 0 0 0 2 0l14.5-8.4z"/><path id="Path_2813" data-name="Path 2813" class="cls-8" d="M-4610.6-3951.7a1.955 1.955 0 0 1-.4-1.4v.1a1.978 1.978 0 0 0 .5 1.4v-.1z"/></g><path id="Path_2814" data-name="Path 2814" class="cls-8" d="M-4589-3962.7l-5 2.8.1.1 4.9-2.8a1.662 1.662 0 0 0 1-1.4c0 .5-.4.9-1 1.3z"/><path id="Path_2815" data-name="Path 2815" class="cls-9" d="M-4608.5-3976.4l19.5 11.1c.6.4 1 .8 1 1.3a1.662 1.662 0 0 0-1-1.4l-19.5-11.1c-1.4-.8-2.5-.2-2.5 1.4v.1c0-1.5 1.1-2.2 2.5-1.4z"/></g></g></svg>